<?xml version="1.0"?>
<svg width="512" height="512" xmlns="http://www.w3.org/2000/svg" xmlns:svg="http://www.w3.org/2000/svg" data-name="Layer 1">
 <title/>
 <g class="layer">
  <title>Layer 1</title>
  <path d="m450.46,256.09c-1.11,-80.92 -50.65,-153.38 -126.46,-182.3c-76.41,-29.12 -166.51,-4.79 -218.18,58.34c-51.42,62.87 -59.21,153.45 -17.33,223.55c41.8,69.95 123.74,106 203.55,91.63c91,-16.37 156.14,-98.12 158.35,-189.14a20.16,20.16 0 0 0 0.07,-2.08zm-331.41,-81.71c33.71,-56.38 101.18,-87.38 165.95,-74.95c69.4,13.29 120.43,70.47 128.83,139l-95.42,0c-8.26,-27.36 -32,-48 -62.62,-48c-29.65,0 -55.15,20.65 -63.11,48l-94.94,0a158,158 0 0 1 21.31,-64.05zm167.08,81.72c-2,38.75 -60.67,39.4 -60.67,0s58.71,-38.77 60.67,0zm24,149.79c-63.28,22.69 -135.13,2.85 -177.83,-49.07a157.53,157.53 0 0 1 -34.57,-83l94.87,0c7.91,27.39 33.7,48 63.19,48c30.67,0 54.36,-20.68 62.62,-48l95.45,0c-7.25,59.18 -46.32,111.5 -103.72,132.07l-0.01,0z" fill="#0d0f16" fill-opacity="0.7" id="svg_1"/>
 </g>
</svg>